
        <svg xmlns="http://www.w3.org/2000/svg" xmlns:xlink="http://www.w3.org/1999/xlink" version="1.1" width="3219.78021978022" 
        height="1032.967032967033" viewBox="0 0 3219.78021978022 1032.967032967033">
			<rect fill="#ffffff" width="3219.78021978022" height="1032.967032967033"/>
			<g transform="scale(10.989010989010989) translate(10, 10)">
				<defs id="SvgjsDefs1264"></defs><g id="SvgjsG1265" featureKey="symbolFeature-0" transform="matrix(0.8300477586992577,0,0,0.8300477586992577,-13.602968728382303,-4.194439975840513)" fill="#111111"><g xmlns="http://www.w3.org/2000/svg"><path d="M34.035,93h31.68c0,0-9.048-9.348-10.505-26.445c-0.056-0.634-0.099-1.289-0.131-1.943   c0.021-4.409-0.615-9.019,0.032-13.352c0.06-0.394,0.13-0.789,0.211-1.178c0.09-0.34,0.184-0.692,0.289-1.047   c0.361-1.677,1.045-3.159,2.3-4.413c1.595-1.368,3.532-2.052,5.063-3.485c0.373-0.312,0.723-0.631,1.027-0.949   c1.227-1.273,1.75-2.528,0.501-3.393c-1.802-1.201-3.696-0.385-5.563,1.198c-0.312,0.264-0.621,0.549-0.928,0.848   c-1.924,2.132-3.976,4.184-5.393,6.717c-0.184,0.316-0.357,0.638-0.523,0.965c-0.498,0.981-0.906,2.011-1.199,3.102   c-0.101,0.29-0.201,0.582-0.311,0.872c-0.324,0.874-0.711,1.728-1.244,2.528c-0.641,0.642-3.204,0.428-3.417-1.28   c-0.285-2.136,0.38-4.177,0.971-6.211c0.074-0.255,0.146-0.509,0.216-0.763c0.997-3.34,1.795-6.76,1.567-10.293   c-0.114-0.456-0.342-0.798-0.798-0.912c-1.026-0.229-1.71,0.57-1.824,1.481c-0.228,2.85-0.342,5.813-1.791,8.349   c-0.188,0.428-0.359,0.762-0.501,0.998c-0.17,0.284-0.467,0.169-0.813-0.234c-0.347-0.403-0.743-1.096-1.11-1.97   c-1.139-2.211-0.979-4.556-0.762-6.909c0.036-0.392,0.074-0.784,0.108-1.176c0.194-0.768,0.081-1.565,0.106-2.341   c-0.004-0.27-0.018-0.564-0.046-0.866c0.021-1.207-0.55-2.803-1.804-2.917c-0.912-0.114-1.368,1.14-2.166,1.14   c-0.57,0-0.456-1.938-1.482-1.14c-0.798,0.684-0.342,1.71-0.114,2.622c0.228,1.481,0.57,2.735,0.726,4.237   c0.058,0.34,0.114,0.682,0.168,1.025c0.107,0.688,0.203,1.379,0.271,2.081c0.069,0.702,0.112,1.414,0.113,2.14   c0.024,0.628,0.047,1.215,0.071,1.765c0.229,5.498,0.362,7.296,1.141,8.765c0.195,0.366,0.43,0.713,0.716,1.093   c2.335,3.453,7.248,6.018,6.435,10.921c-0.059,0.556-0.146,1.205-0.257,1.89C43.619,73.422,38.08,92,34.035,93z"></path><g><path d="M65.581,60.447c0,0-9.188-0.93-8.989,8.912C59.471,68.684,64.493,68.866,65.581,60.447z"></path><path d="M42.148,69.504c0,0,1.389-7.533-6.762-8.033C35.751,63.896,35.261,68.036,42.148,69.504z"></path><path d="M60.951,35.5c0,0,6.691-3.464,2.166-10.1C61.451,27.146,57.939,29.262,60.951,35.5z"></path><path d="M62.5,60.307c0,0,3.744-1.938,1.212-5.65C62.779,55.633,60.814,56.816,62.5,60.307z"></path><path d="M43.5,41.306c0,0,3.744-1.938,1.212-5.649C43.78,36.633,41.815,37.816,43.5,41.306z"></path><path d="M42.5,37.306c0,0,3.744-1.938,1.212-5.649C42.78,32.633,40.815,33.816,42.5,37.306z"></path><path d="M50.55,45.235c0,0,6.376-3.3,2.063-9.621C51.027,37.277,47.681,39.292,50.55,45.235z"></path><path d="M62.766,53.904c0,0,2.074-2.941-1.307-4.757C61.139,50.254,60.115,51.925,62.766,53.904z"></path><path d="M43.766,65.904c0,0,2.074-2.941-1.307-4.758C42.138,62.254,41.115,63.925,43.766,65.904z"></path><path d="M66.001,65.217c0,0,5.015-1.357,2.931-6.49C67.555,59.661,64.881,60.576,66.001,65.217z"></path><path d="M63.766,13.905c0,0,2.074-2.942-1.307-4.758C62.139,10.254,61.115,11.925,63.766,13.905z"></path><path d="M26.766,20.905c0,0,2.074-2.942-1.307-4.758C25.138,17.254,24.115,18.925,26.766,20.905z"></path><path d="M21.766,55.904c0,0,2.074-2.941-1.307-4.758C20.138,52.254,19.115,53.925,21.766,55.904z"></path><path d="M28.766,63.904c0,0,2.074-2.941-1.307-4.758C27.138,60.254,26.115,61.925,28.766,63.904z"></path><path d="M24.931,26.78c0,0,3.339-4.736-2.103-7.659C22.311,20.902,20.665,23.592,24.931,26.78z"></path><path d="M49.766,48.905c0,0,2.074-2.942-1.307-4.758C48.138,45.254,47.115,46.925,49.766,48.905z"></path><path d="M65.566,25.819c0,0,5.115-7.256-3.223-11.734C61.553,16.814,59.031,20.934,65.566,25.819z"></path><path d="M28.921,19.312c0,0,5.714-2.557,2.272-8.273C29.73,12.408,26.718,13.998,28.921,19.312z"></path><path d="M40.927,8.329c0,0,4.236,4.608,8.566-0.468C47.731,6.908,45.269,4.555,40.927,8.329z"></path><path d="M65.027,12.383c0,0-0.077,6.259,6.557,5.534C70.954,16.015,70.775,12.613,65.027,12.383z"></path><path d="M34.092,13.17c0,0,6.233,0.567,6.029-6.104C38.175,7.546,34.771,7.458,34.092,13.17z"></path><path d="M67.766,40.905c0,0,2.074-2.942-1.307-4.758C66.139,37.254,65.115,38.925,67.766,40.905z"></path><path d="M76.895,36.896c0,0,2.244-3.183-1.414-5.146C75.133,32.946,74.027,34.754,76.895,36.896z"></path><path d="M60.766,25.905c0,0,2.074-2.942-1.307-4.758C59.139,22.254,58.115,23.925,60.766,25.905z"></path><path d="M47.472,52.369c0,0,2.114-0.656,1.147-2.809C48.047,49.979,46.922,50.411,47.472,52.369z"></path><path d="M35.678,26.466c0,0,0.791,2.068,2.876,0.964C38.099,26.887,37.597,25.792,35.678,26.466z"></path><path d="M48.472,15.369c0,0,2.114-0.657,1.147-2.809C49.047,12.979,47.922,13.411,48.472,15.369z"></path><path d="M74.596,25.192c0,0,1.67,1.453,2.991-0.5C76.93,24.425,75.973,23.694,74.596,25.192z"></path><path d="M42.291,31.487c0,0,1.449-1.674-0.509-2.991C41.518,29.154,40.79,30.115,42.291,31.487z"></path><path d="M64.473,35.369c0,0,2.113-0.657,1.146-2.809C65.047,32.979,63.922,33.411,64.473,35.369z"></path><path d="M54.473,40.369c0,0,2.113-0.657,1.146-2.809C55.047,37.979,53.922,38.411,54.473,40.369z"></path><path d="M67.473,21.369c0,0,2.113-0.657,1.146-2.809C68.047,18.979,66.922,19.411,67.473,21.369z"></path><path d="M58.473,20.369c0,0,2.113-0.657,1.146-2.809C59.047,17.979,57.922,18.411,58.473,20.369z"></path><path d="M39.644,11.42c0,0,1.875,1.178,2.879-0.957C41.833,10.302,40.773,9.728,39.644,11.42z"></path><path d="M49.472,36.369c0,0,2.114-0.657,1.147-2.809C50.047,33.979,48.922,34.411,49.472,36.369z"></path><path d="M33.472,28.369c0,0,2.114-0.657,1.147-2.809C34.047,25.979,32.922,26.411,33.472,28.369z"></path><path d="M20.472,37.369c0,0,2.114-0.657,1.147-2.809C21.047,34.979,19.922,35.411,20.472,37.369z"></path><path d="M35.472,59.369c0,0,2.114-0.656,1.147-2.809C36.047,56.979,34.922,57.41,35.472,59.369z"></path><path d="M32.472,12.369c0,0,2.114-0.656,1.147-2.809C33.047,9.979,31.922,10.41,32.472,12.369z"></path><path d="M45.641,33.606c0,0,3.902-0.314,3.068-4.402C47.56,29.705,45.451,30.013,45.641,33.606z"></path><path d="M32.326,18.278c0,0,3.498-0.282,2.75-3.946C34.046,14.782,32.156,15.058,32.326,18.278z"></path><path d="M18.39,50.344c0,0,3.075-0.248,2.417-3.468C19.901,47.271,18.24,47.514,18.39,50.344z"></path><path d="M73.457,47.755c0,0,2.488-1.822,0.24-4.221C73.135,44.345,71.848,45.422,73.457,47.755z"></path><path d="M32.333,65.723c0,0,2.969-2.174,0.288-5.035C31.948,61.656,30.412,62.939,32.333,65.723z"></path><path d="M46.725,20.55c0,0,2.975-0.817,1.728-3.859C47.637,17.249,46.05,17.797,46.725,20.55z"></path><path d="M73.457,53.755c0,0,2.488-1.821,0.24-4.221C73.135,50.345,71.848,51.422,73.457,53.755z"></path><path d="M75.938,23.256c0,0,0.746-3.909-3.485-4.195C72.632,20.322,72.363,22.472,75.938,23.256z"></path><path d="M55.57,16.784c0,0,0.582-3.046-2.717-3.27C52.995,14.497,52.786,16.172,55.57,16.784z"></path><path d="M49.011,11.457c0,0,6.391,3.098,8.844-4.062C55.6,7.122,52.018,5.666,49.011,11.457z"></path><path d="M75.37,43.749c0,0,6.44-0.518,5.062-7.263C78.536,37.313,75.059,37.821,75.37,43.749z"></path><path d="M57.391,38.344c0,0,3.074-0.248,2.416-3.468C58.9,35.271,57.24,35.514,57.391,38.344z"></path><path d="M39.39,27.344c0,0,3.075-0.248,2.417-3.468C40.901,24.271,39.24,24.514,39.39,27.344z"></path><path d="M29.35,45.303c0,0,3.34-0.269,2.625-3.767C30.992,41.965,29.188,42.229,29.35,45.303z"></path><path d="M23.35,31.303c0,0,3.34-0.269,2.625-3.767C24.992,27.965,23.188,28.229,23.35,31.303z"></path><path d="M23.561,52.451c0,0,5.1-0.41,4.008-5.752C26.068,47.354,23.313,47.757,23.561,52.451z"></path><path d="M28.752,28c0,0,5.279-3.025,1.398-8.218C28.868,21.248,26.108,23.076,28.752,28z"></path><path d="M24.842,60.168c0,0,4.038-3.665-0.359-7.463C23.643,54.234,21.579,56.366,24.842,60.168z"></path><path d="M43.951,31.5c0,0,6.691-3.464,2.166-10.1C44.451,23.146,40.939,25.262,43.951,31.5z"></path><path d="M75.951,53.5c0,0,6.691-3.465,2.166-10.1C76.451,45.146,72.939,47.262,75.951,53.5z"></path><path d="M18.951,34.5c0,0,6.692-3.465,2.166-10.1C19.451,26.146,15.939,28.262,18.951,34.5z"></path><path d="M33.15,36.35c0,0,4.439-5.041-1.465-9.09C30.865,29.249,28.632,32.142,33.15,36.35z"></path><path d="M19.456,46.426c0,0,4.962-5.635-1.638-10.162C16.902,38.489,14.405,41.722,19.456,46.426z"></path><path d="M35.818,44.004c0,0,2.261-5.167-3.497-6.896C32.174,38.909,31.128,41.794,35.818,44.004z"></path><path d="M41.656,62.049c0,0,2.574-5.883-3.98-7.849C37.508,56.25,36.317,59.533,41.656,62.049z"></path><path d="M79.656,34.049c0,0,2.574-5.883-3.98-7.849C75.508,28.25,74.316,31.533,79.656,34.049z"></path><path d="M56.951,18.5c0,0,6.691-3.465,2.166-10.1C57.451,10.146,53.939,12.262,56.951,18.5z"></path><path d="M71.951,43.5c0,0,6.691-3.464,2.166-10.1C72.451,35.146,68.939,37.262,71.951,43.5z"></path><path d="M61.939,45.617c0,0,5.149-0.089,4.395-5.527C64.784,40.654,61.99,40.882,61.939,45.617z"></path><path d="M56.939,50.617c0,0,5.149-0.09,4.395-5.527C59.784,45.654,56.99,45.882,56.939,50.617z"></path><path d="M70.305,60.001c0,0,5.694-0.101,4.858-6.112C73.449,54.514,70.359,54.766,70.305,60.001z"></path><path d="M57.29,62.646c0,0,7.444-3.854,2.409-11.233C57.848,53.355,53.939,55.708,57.29,62.646z"></path><path d="M55.947,36.759c0,0,9.578-12.53-4.914-21.049C49.44,20.502,44.679,27.641,55.947,36.759z"></path><path d="M24.267,46.719c0,0,10.458-5.898,2.87-16.204C24.584,33.391,19.113,36.96,24.267,46.719z"></path><path d="M68.352,36.323c0,0,9.939-5.606,2.729-15.402C68.652,23.655,63.452,27.047,68.352,36.323z"></path><path d="M30.311,60.516c0,0,10.191-5.748,2.796-15.792C30.62,47.527,25.288,51.005,30.311,60.516z"></path><path d="M66.462,56.803c0,0,9.259-5.223,2.54-14.346C66.743,45.002,61.898,48.162,66.462,56.803z"></path><path d="M32.672,24.589c0,0,13.546,2.332,14.268-12.303C42.595,12.992,35.16,12.201,32.672,24.589z"></path></g></g></g><g id="SvgjsG1266" featureKey="textGroupContainer" transform="matrix(1,0,0,1,73,0)" fill="#111111"><rect y="0" height="1" width="1" opacity="0"></rect><rect y="69" width="200" height="5"></rect></g><g id="SvgjsG1267" featureKey="nameFeature-0" transform="matrix(1.1844131190162952,0,0,1.1844131190162952,70.39429108168693,12.504326109761532)" fill="#111111"><path d="M7.22 11.46 l2.64 0 q2.2 0 2.2 -2.12 q0 -1.1 -0.55 -1.59 t-1.65 -0.49 l-5.48 0 l0 4.8 q0.62 -0.36 1.4 -0.5 q0.58 -0.1 1.44 -0.1 z M4.38 20 l-2.18 0 l0 -14.92 l7.66 0 q1.32 0 2.3 0.51 t1.52 1.47 t0.54 2.27 t-0.54 2.29 t-1.53 1.51 t-2.29 0.53 l-2.64 0 q-1.72 0 -2.84 0.6 l0 5.74 z M33.84 5.08 l2.3 0 l-4.76 14.92 l-2.36 0 l-2.88 -8.82 l-2.8 8.82 l-2.36 0 l-5.06 -14.92 l2.24 0 l3.96 11.16 l2.8 -8.8 l-0.76 -2.36 l2.24 0 l3.76 11.16 z M55.56 7.279999999999999 l-5.26 0 l0 12.72 l-2.12 0 l0 -12.72 l-5.32 0 l0 -2.2 l12.7 0 l0 2.2 z M60.540000000000006 7.26 l0 4.96 q0.62 -0.36 1.38 -0.48 q0.56 -0.1 1.44 -0.1 l2.84 0 q1.18 0 1.84 -0.54 q0.7 -0.58 0.7 -1.74 q0 -1.1 -0.74 -1.64 q-0.64 -0.46 -1.8 -0.46 l-5.66 0 z M66.92 17.64 l-1.82 -3.82 l-1.74 0 q-0.82 0 -1.44 0.1 q-0.76 0.14 -1.38 0.48 l0 5.6 l-2.18 0 l0 -14.92 l7.84 0 q1.38 0 2.44 0.52 t1.64 1.48 q0.62 1.02 0.62 2.4 q0 1.68 -0.9 2.76 t-2.54 1.5 l1.16 2.38 q0.5 0.74 0.78 1.04 q0.34 0.38 0.65 0.51 t0.81 0.13 l0.22 0 l0.48 -0.02 l0 2.22 q-1.16 0 -1.72 -0.08 q-0.94 -0.16 -1.6 -0.62 q-0.78 -0.56 -1.32 -1.66 z M77.34 14.02 l0 3.8 l9.2 0 l0 2.18 l-11.38 0 l0 -14.92 l10.5 0 l0 2.2 l-8.32 0 l0 4.52 q0.62 -0.36 1.38 -0.48 q0.56 -0.1 1.44 -0.1 l3.26 0 l0 2.22 l-3.26 0 q-0.82 0 -1.44 0.1 q-0.76 0.14 -1.38 0.48 z M92.22 14.02 l0 3.8 l9.2 0 l0 2.18 l-11.38 0 l0 -14.92 l10.5 0 l0 2.2 l-8.32 0 l0 4.52 q0.62 -0.36 1.38 -0.48 q0.56 -0.1 1.44 -0.1 l3.26 0 l0 2.22 l-3.26 0 q-0.82 0 -1.44 0.1 q-0.76 0.14 -1.38 0.48 z M123.12 7 l-1.4 1.64 q-0.82 -0.84 -1.96 -1.32 t-2.4 -0.48 q-1.64 0 -2.99 0.74 t-2.11 2.02 q-0.78 1.34 -0.78 2.98 q0 1.56 0.84 2.88 q0.8 1.24 2.15 1.97 t2.91 0.73 q1.44 0 2.68 -0.62 t2.06 -1.72 l1.34 1.82 q-1.14 1.28 -2.73 1.99 t-3.37 0.71 q-2.22 0 -4.08 -1.08 q-1.82 -1.04 -2.86 -2.86 q-1.08 -1.86 -1.08 -4.08 q0 -2.14 1.14 -3.94 q1.08 -1.72 2.93 -2.73 t3.97 -1.01 q1.66 0 3.16 0.64 q1.46 0.6 2.58 1.72 z M131.32000000000002 6.66 l-0.82 -1.84 l2.4 0 l7.18 15.18 l-2.44 0 l-0.98 -2.18 l-4.54 0 q-1.28 0 -2.3 0.24 q-0.9 0.22 -1.5 0.58 q-0.54 0.32 -0.72 0.66 l-0.38 0.7 l-2.36 0 z M132.92000000000002 15.620000000000001 l2.76 0 l-3.26 -6.3 l-3.3 7.14 q0.44 -0.38 1.34 -0.6 q1.02 -0.24 2.46 -0.24 z M145.06 7.26 l0 4.96 q0.62 -0.36 1.38 -0.48 q0.56 -0.1 1.44 -0.1 l2.84 0 q1.18 0 1.84 -0.54 q0.7 -0.58 0.7 -1.74 q0 -1.1 -0.74 -1.64 q-0.64 -0.46 -1.8 -0.46 l-5.66 0 z M151.44 17.64 l-1.82 -3.82 l-1.74 0 q-0.82 0 -1.44 0.1 q-0.76 0.14 -1.38 0.48 l0 5.6 l-2.18 0 l0 -14.92 l7.84 0 q1.38 0 2.44 0.52 t1.64 1.48 q0.62 1.02 0.62 2.4 q0 1.68 -0.9 2.76 t-2.54 1.5 l1.16 2.38 q0.5 0.74 0.78 1.04 q0.34 0.38 0.65 0.51 t0.81 0.13 l0.22 0 l0.48 -0.02 l0 2.22 q-1.16 0 -1.72 -0.08 q-0.94 -0.16 -1.6 -0.62 q-0.78 -0.56 -1.32 -1.66 z M161.86 14.02 l0 3.8 l9.2 0 l0 2.18 l-11.38 0 l0 -14.92 l10.5 0 l0 2.2 l-8.32 0 l0 4.52 q0.62 -0.36 1.38 -0.48 q0.56 -0.1 1.44 -0.1 l3.26 0 l0 2.22 l-3.26 0 q-0.82 0 -1.44 0.1 q-0.76 0.14 -1.38 0.48 z"></path></g><g id="SvgjsG1268" featureKey="sloganFeature-0" transform="matrix(0.6488450763573116,0,0,0.6488450763573116,71.98780156331308,43.98936047929945)" fill="#111111"><path d="M12.7 6.92 l-1.36 1.6 q-0.66 -0.88 -1.74 -1.32 q-0.88 -0.36 -1.86 -0.36 q-0.74 0 -1.42 0.22 q-0.8 0.28 -1.26 0.78 q-0.54 0.62 -0.54 1.49 t0.63 1.38 t1.59 0.51 l2.2 0 l-0.16 2.18 l-2.08 0 q-0.74 0 -1.38 0.24 q-0.72 0.28 -1.12 0.8 q-0.48 0.58 -0.48 1.42 q0 2.28 3.28 2.28 q1.26 0 2.64 -0.66 q1.3 -0.64 2.2 -1.6 l0.18 -2.48 l-1.54 0 l0.18 -2.18 l5.14 0 l-0.18 2.18 l-1.46 0 l-0.48 6.6 l-2.12 0 l0.12 -1.86 q-1.08 0.96 -2.38 1.52 q-1.26 0.54 -2.3 0.54 q-2.74 0 -4.14 -1.22 q-1.3 -1.12 -1.3 -3.08 q0 -2.5 2.1 -4 q-0.68 -0.46 -1 -1 q-0.34 -0.58 -0.34 -1.36 q0 -1.06 0.44 -2.04 q0.54 -1.26 1.64 -1.98 q1.36 -0.88 3.38 -0.88 q1.66 0 3 0.7 q1.1 0.58 1.92 1.58 z M35.480000000000004 20 l-10.46 0 l0 -14.92 l2.18 0 l0 12.74 l8.28 0 l0 2.18 z M42.74 6.66 l-0.82 -1.84 l2.4 0 l7.18 15.18 l-2.44 0 l-0.98 -2.18 l-4.54 0 q-1.28 0 -2.3 0.24 q-0.9 0.22 -1.5 0.58 q-0.54 0.32 -0.72 0.66 l-0.38 0.7 l-2.36 0 z M44.34 15.620000000000001 l2.76 0 l-3.26 -6.3 l-3.3 7.14 q0.44 -0.38 1.34 -0.6 q1.02 -0.24 2.46 -0.24 z M54.74 7.18 l-1.74 -2.1 l2.82 0 l9.58 11.4 l0 -11.4 l2.2 0 l0 14.92 l-2.16 0 l-8.56 -10.26 l0 10.26 l-2.14 0 l0 -12.82 z M74.97999999999999 7.279999999999999 l0 10.54 l3.38 0 q1.4 0 2.52 -0.72 q1.06 -0.7 1.66 -1.88 t0.6 -2.58 q0 -1.46 -0.57 -2.68 t-1.63 -1.94 q-1.14 -0.74 -2.62 -0.74 l-3.34 0 z M71.66 7.279999999999999 l-0.96 -2.2 l7.6 0 q1.98 0 3.62 1.02 q1.58 0.98 2.5 2.68 t0.92 3.7 q0 1.5 -0.59 2.97 t-1.63 2.57 q-1 1.08 -2.14 1.54 q-1.1 0.44 -2.62 0.44 l-5.52 0 l0 -12.72 l-1.18 0 z M100.33999999999999 15.46 q0 1.46 -0.88 2.6 q-0.86 1.08 -2.37 1.68 t-3.41 0.6 q-1.74 0 -3.38 -0.81 t-2.76 -2.25 l1.56 -1.46 q1.94 2.34 4.58 2.34 q1.16 0 2.12 -0.28 q1.06 -0.32 1.64 -0.9 q0.66 -0.64 0.66 -1.52 q0 -1.06 -0.66 -1.6 q-0.56 -0.46 -1.66 -0.6 q-0.64 -0.08 -2.1 -0.08 q-2.68 0 -4.09 -0.98 t-1.41 -2.88 q0 -1.2 0.71 -2.28 t1.95 -1.72 q1.28 -0.68 2.84 -0.68 q1.76 0 3.18 0.54 q1.52 0.58 2.82 1.82 l-1.36 1.6 q-1.22 -0.98 -2.22 -1.37 t-2.42 -0.39 q-0.82 0 -1.53 0.34 t-1.13 0.91 t-0.42 1.21 q0 1.72 3.18 1.72 q2.54 0 4.02 0.52 q1.4 0.5 2 1.52 q0.54 0.9 0.54 2.4 z M116.32 7 l-1.4 1.64 q-0.82 -0.84 -1.96 -1.32 t-2.4 -0.48 q-1.64 0 -2.99 0.74 t-2.11 2.02 q-0.78 1.34 -0.78 2.98 q0 1.56 0.84 2.88 q0.8 1.24 2.15 1.97 t2.91 0.73 q1.44 0 2.68 -0.62 t2.06 -1.72 l1.34 1.82 q-1.14 1.28 -2.73 1.99 t-3.37 0.71 q-2.22 0 -4.08 -1.08 q-1.82 -1.04 -2.86 -2.86 q-1.08 -1.86 -1.08 -4.08 q0 -2.14 1.14 -3.94 q1.08 -1.72 2.93 -2.73 t3.97 -1.01 q1.66 0 3.16 0.64 q1.46 0.6 2.58 1.72 z M124.52 6.66 l-0.82 -1.84 l2.4 0 l7.18 15.18 l-2.44 0 l-0.98 -2.18 l-4.54 0 q-1.28 0 -2.3 0.24 q-0.9 0.22 -1.5 0.58 q-0.54 0.32 -0.72 0.66 l-0.38 0.7 l-2.36 0 z M126.12 15.620000000000001 l2.76 0 l-3.26 -6.3 l-3.3 7.14 q0.44 -0.38 1.34 -0.6 q1.02 -0.24 2.46 -0.24 z M141.1 11.46 l2.64 0 q2.2 0 2.2 -2.12 q0 -1.1 -0.55 -1.59 t-1.65 -0.49 l-5.48 0 l0 4.8 q0.62 -0.36 1.4 -0.5 q0.58 -0.1 1.44 -0.1 z M138.26 20 l-2.18 0 l0 -14.92 l7.66 0 q1.32 0 2.3 0.51 t1.52 1.47 t0.54 2.27 t-0.54 2.29 t-1.53 1.51 t-2.29 0.53 l-2.64 0 q-1.72 0 -2.84 0.6 l0 5.74 z M153.44 20 l-2.14 0 l0 -14.92 l2.14 0 l0 14.92 z M158.27999999999997 7.18 l-1.74 -2.1 l2.82 0 l9.58 11.4 l0 -11.4 l2.2 0 l0 14.92 l-2.16 0 l-8.56 -10.26 l0 10.26 l-2.14 0 l0 -12.82 z M188.31999999999996 7 l-1.4 1.64 q-0.82 -0.84 -1.96 -1.32 t-2.4 -0.48 q-1.64 0 -2.99 0.74 t-2.11 2.02 q-0.78 1.34 -0.78 2.98 q0 1.56 0.84 2.88 q0.8 1.24 2.15 1.97 t2.91 0.73 q1.1 0 2.11 -0.38 t1.81 -1.06 l0 -2.72 l-1.92 0 l-0.94 -2.16 l5.02 0 l0 5.8 q-1.14 1.28 -2.73 1.99 t-3.37 0.71 q-2.22 0 -4.08 -1.08 q-1.82 -1.04 -2.86 -2.86 q-1.08 -1.86 -1.08 -4.08 q0 -2.14 1.14 -3.94 q1.08 -1.72 2.93 -2.73 t3.97 -1.01 q1.66 0 3.16 0.64 q1.46 0.6 2.58 1.72 z M209.37999999999997 15.46 q0 1.46 -0.88 2.6 q-0.86 1.08 -2.37 1.68 t-3.41 0.6 q-1.74 0 -3.38 -0.81 t-2.76 -2.25 l1.56 -1.46 q1.94 2.34 4.58 2.34 q1.16 0 2.12 -0.28 q1.06 -0.32 1.64 -0.9 q0.66 -0.64 0.66 -1.52 q0 -1.06 -0.66 -1.6 q-0.56 -0.46 -1.66 -0.6 q-0.64 -0.08 -2.1 -0.08 q-2.68 0 -4.09 -0.98 t-1.41 -2.88 q0 -1.2 0.71 -2.28 t1.95 -1.72 q1.28 -0.68 2.84 -0.68 q1.76 0 3.18 0.54 q1.52 0.58 2.82 1.82 l-1.36 1.6 q-1.22 -0.98 -2.22 -1.37 t-2.42 -0.39 q-0.82 0 -1.53 0.34 t-1.13 0.91 t-0.42 1.21 q0 1.72 3.18 1.72 q2.54 0 4.02 0.52 q1.4 0.5 2 1.52 q0.54 0.9 0.54 2.4 z M214.75999999999996 14.02 l0 3.8 l9.2 0 l0 2.18 l-11.38 0 l0 -14.92 l10.5 0 l0 2.2 l-8.32 0 l0 4.52 q0.62 -0.36 1.38 -0.48 q0.56 -0.1 1.44 -0.1 l3.26 0 l0 2.22 l-3.26 0 q-0.82 0 -1.44 0.1 q-0.76 0.14 -1.38 0.48 z M229.63999999999996 7.26 l0 4.96 q0.62 -0.36 1.38 -0.48 q0.56 -0.1 1.44 -0.1 l2.84 0 q1.18 0 1.84 -0.54 q0.7 -0.58 0.7 -1.74 q0 -1.1 -0.74 -1.64 q-0.64 -0.46 -1.8 -0.46 l-5.66 0 z M236.01999999999995 17.64 l-1.82 -3.82 l-1.74 0 q-0.82 0 -1.44 0.1 q-0.76 0.14 -1.38 0.48 l0 5.6 l-2.18 0 l0 -14.92 l7.84 0 q1.38 0 2.44 0.52 t1.64 1.48 q0.62 1.02 0.62 2.4 q0 1.68 -0.9 2.76 t-2.54 1.5 l1.16 2.38 q0.5 0.74 0.78 1.04 q0.34 0.38 0.65 0.51 t0.81 0.13 l0.22 0 l0.48 -0.02 l0 2.22 q-1.16 0 -1.72 -0.08 q-0.94 -0.16 -1.6 -0.62 q-0.78 -0.56 -1.32 -1.66 z M257.65999999999997 5.08 l-6.26 14.92 l-2.58 0 l-6.16 -14.92 l2.36 0 l5.1 12.48 l5.14 -12.48 l2.4 0 z M262.59999999999997 20 l-2.14 0 l0 -14.92 l2.14 0 l0 14.92 z M279.78000000000003 7 l-1.4 1.64 q-0.82 -0.84 -1.96 -1.32 t-2.4 -0.48 q-1.64 0 -2.99 0.74 t-2.11 2.02 q-0.78 1.34 -0.78 2.98 q0 1.56 0.84 2.88 q0.8 1.24 2.15 1.97 t2.91 0.73 q1.44 0 2.68 -0.62 t2.06 -1.72 l1.34 1.82 q-1.14 1.28 -2.73 1.99 t-3.37 0.71 q-2.22 0 -4.08 -1.08 q-1.82 -1.04 -2.86 -2.86 q-1.08 -1.86 -1.08 -4.08 q0 -2.14 1.14 -3.94 q1.08 -1.72 2.93 -2.73 t3.97 -1.01 q1.66 0 3.16 0.64 q1.46 0.6 2.58 1.72 z M285.5 14.02 l0 3.8 l9.2 0 l0 2.18 l-11.38 0 l0 -14.92 l10.5 0 l0 2.2 l-8.32 0 l0 4.52 q0.62 -0.36 1.38 -0.48 q0.56 -0.1 1.44 -0.1 l3.26 0 l0 2.22 l-3.26 0 q-0.82 0 -1.44 0.1 q-0.76 0.14 -1.38 0.48 z M309.8 15.46 q0 1.46 -0.88 2.6 q-0.86 1.08 -2.37 1.68 t-3.41 0.6 q-1.74 0 -3.38 -0.81 t-2.76 -2.25 l1.56 -1.46 q1.94 2.34 4.58 2.34 q1.16 0 2.12 -0.28 q1.06 -0.32 1.64 -0.9 q0.66 -0.64 0.66 -1.52 q0 -1.06 -0.66 -1.6 q-0.56 -0.46 -1.66 -0.6 q-0.64 -0.08 -2.1 -0.08 q-2.68 0 -4.09 -0.98 t-1.41 -2.88 q0 -1.2 0.71 -2.28 t1.95 -1.72 q1.28 -0.68 2.84 -0.68 q1.76 0 3.18 0.54 q1.52 0.58 2.82 1.82 l-1.36 1.6 q-1.22 -0.98 -2.22 -1.37 t-2.42 -0.39 q-0.82 0 -1.53 0.34 t-1.13 0.91 t-0.42 1.21 q0 1.72 3.18 1.72 q2.54 0 4.02 0.52 q1.4 0.5 2 1.52 q0.54 0.9 0.54 2.4 z"></path></g>
			</g>
		</svg>
	